<?xml version="1.0" encoding="UTF-8" standalone="no"?>
<!DOCTYPE svg PUBLIC "-//W3C//DTD SVG 1.1//EN"
 "http://www.w3.org/Graphics/SVG/1.1/DTD/svg11.dtd">
<!-- Generated by graphviz version 2.46.0 (20210119.1425)
 -->
<!-- Title: dependencies Pages: 1 -->
<svg width="2083pt" height="284pt"
 viewBox="0.00 0.00 2083.00 284.00" xmlns="http://www.w3.org/2000/svg" xmlns:xlink="http://www.w3.org/1999/xlink">
<g id="graph0" class="graph" transform="scale(1 1) rotate(0) translate(4 280)">
<title>dependencies</title>
<polygon fill="white" stroke="transparent" points="-4,4 -4,-280 2079,-280 2079,4 -4,4"/>
<text text-anchor="start" x="1016.51" y="-42.4" font-family="sans-serif" font-weight="bold" font-size="14.00">Legend</text>
<polygon fill="#ffffb3" stroke="transparent" points="803.5,-10 803.5,-30 823.5,-30 823.5,-10 803.5,-10"/>
<text text-anchor="start" x="827.13" y="-15.4" font-family="sans-serif" font-size="14.00"> &#160;Declarations</text>
<polygon fill="#8dd3c7" stroke="transparent" points="916.5,-10 916.5,-30 936.5,-30 936.5,-10 916.5,-10"/>
<text text-anchor="start" x="940.23" y="-15.4" font-family="sans-serif" font-size="14.00"> &#160;Module</text>
<polygon fill="#80b1d3" stroke="transparent" points="1002.5,-10 1002.5,-30 1022.5,-30 1022.5,-10 1002.5,-10"/>
<text text-anchor="start" x="1026.28" y="-15.4" font-family="sans-serif" font-size="14.00"> &#160;Bootstrap</text>
<polygon fill="#fdb462" stroke="transparent" points="1099.5,-10 1099.5,-30 1119.5,-30 1119.5,-10 1099.5,-10"/>
<text text-anchor="start" x="1123.17" y="-15.4" font-family="sans-serif" font-size="14.00"> &#160;Providers</text>
<polygon fill="#fb8072" stroke="transparent" points="1195.5,-10 1195.5,-30 1215.5,-30 1215.5,-10 1195.5,-10"/>
<text text-anchor="start" x="1219.23" y="-15.4" font-family="sans-serif" font-size="14.00"> &#160;Exports</text>
<g id="clust1" class="cluster">
<title>cluster_AppModule</title>
<polygon fill="none" stroke="black" stroke-dasharray="1,5" points="8,-70 8,-268 2067,-268 2067,-70 8,-70"/>
</g>
<g id="clust16" class="cluster">
<title>cluster_AppModule_imports</title>
<polygon fill="none" stroke="black" points="1915,-78 1915,-130 2059,-130 2059,-78 1915,-78"/>
</g>
<g id="clust2" class="cluster">
<title>cluster_AppModule_declarations</title>
<polygon fill="none" stroke="black" points="16,-78 16,-130 1907,-130 1907,-78 16,-78"/>
</g>
<g id="clust18" class="cluster">
<title>cluster_AppModule_bootstrap</title>
<polygon fill="none" stroke="black" points="1047,-208 1047,-260 1171,-260 1171,-208 1047,-208"/>
</g>
<!-- AlertComponent -->
<g id="node1" class="node">
<title>AlertComponent</title>
<polygon fill="#ffffb3" stroke="black" points="1899.1,-122 1788.9,-122 1788.9,-86 1899.1,-86 1899.1,-122"/>
<text text-anchor="middle" x="1844" y="-99.8" font-family="Times,serif" font-size="14.00">AlertComponent</text>
</g>
<!-- AppModule -->
<g id="node14" class="node">
<title>AppModule</title>
<polygon fill="#8dd3c7" stroke="black" points="1150.66,-187 1147.66,-191 1126.66,-191 1123.66,-187 1067.34,-187 1067.34,-151 1150.66,-151 1150.66,-187"/>
<text text-anchor="middle" x="1109" y="-164.8" font-family="Times,serif" font-size="14.00">AppModule</text>
</g>
<!-- AlertComponent&#45;&gt;AppModule -->
<g id="edge1" class="edge">
<title>AlertComponent&#45;&gt;AppModule</title>
<path fill="none" stroke="black" d="M1844,-122.04C1844,-143.66 1844,-177 1844,-177 1844,-177 1160.89,-177 1160.89,-177"/>
<polygon fill="black" stroke="black" points="1160.89,-173.5 1150.89,-177 1160.89,-180.5 1160.89,-173.5"/>
</g>
<!-- AppComponent -->
<g id="node2" class="node">
<title>AppComponent</title>
<polygon fill="#ffffb3" stroke="black" points="1770.94,-122 1665.06,-122 1665.06,-86 1770.94,-86 1770.94,-122"/>
<text text-anchor="middle" x="1718" y="-99.8" font-family="Times,serif" font-size="14.00">AppComponent</text>
</g>
<!-- AppComponent&#45;&gt;AppModule -->
<g id="edge2" class="edge">
<title>AppComponent&#45;&gt;AppModule</title>
<path fill="none" stroke="black" d="M1718,-122.22C1718,-142.37 1718,-172 1718,-172 1718,-172 1160.86,-172 1160.86,-172"/>
<polygon fill="black" stroke="black" points="1160.86,-168.5 1150.86,-172 1160.86,-175.5 1160.86,-168.5"/>
</g>
<!-- FooterComponent -->
<g id="node3" class="node">
<title>FooterComponent</title>
<polygon fill="#ffffb3" stroke="black" points="1646.88,-122 1529.12,-122 1529.12,-86 1646.88,-86 1646.88,-122"/>
<text text-anchor="middle" x="1588" y="-99.8" font-family="Times,serif" font-size="14.00">FooterComponent</text>
</g>
<!-- FooterComponent&#45;&gt;AppModule -->
<g id="edge3" class="edge">
<title>FooterComponent&#45;&gt;AppModule</title>
<path fill="none" stroke="black" d="M1588,-122.22C1588,-140.83 1588,-167 1588,-167 1588,-167 1160.67,-167 1160.67,-167"/>
<polygon fill="black" stroke="black" points="1160.67,-163.5 1150.67,-167 1160.67,-170.5 1160.67,-163.5"/>
</g>
<!-- InicioComponent -->
<g id="node4" class="node">
<title>InicioComponent</title>
<polygon fill="#ffffb3" stroke="black" points="1510.99,-122 1397.01,-122 1397.01,-86 1510.99,-86 1510.99,-122"/>
<text text-anchor="middle" x="1454" y="-99.8" font-family="Times,serif" font-size="14.00">InicioComponent</text>
</g>
<!-- InicioComponent&#45;&gt;AppModule -->
<g id="edge4" class="edge">
<title>InicioComponent&#45;&gt;AppModule</title>
<path fill="none" stroke="black" d="M1454,-122.03C1454,-139.06 1454,-162 1454,-162 1454,-162 1160.96,-162 1160.96,-162"/>
<polygon fill="black" stroke="black" points="1160.96,-158.5 1150.96,-162 1160.96,-165.5 1160.96,-158.5"/>
</g>
<!-- LoginComponent -->
<g id="node5" class="node">
<title>LoginComponent</title>
<polygon fill="#ffffb3" stroke="black" points="1379.28,-122 1264.72,-122 1264.72,-86 1379.28,-86 1379.28,-122"/>
<text text-anchor="middle" x="1322" y="-99.8" font-family="Times,serif" font-size="14.00">LoginComponent</text>
</g>
<!-- LoginComponent&#45;&gt;AppModule -->
<g id="edge5" class="edge">
<title>LoginComponent&#45;&gt;AppModule</title>
<path fill="none" stroke="black" d="M1322,-122.24C1322,-137.57 1322,-157 1322,-157 1322,-157 1160.83,-157 1160.83,-157"/>
<polygon fill="black" stroke="black" points="1160.83,-153.5 1150.83,-157 1160.83,-160.5 1160.83,-153.5"/>
</g>
<!-- MenuComponent -->
<g id="node6" class="node">
<title>MenuComponent</title>
<polygon fill="#ffffb3" stroke="black" points="1246.99,-122 1133.01,-122 1133.01,-86 1246.99,-86 1246.99,-122"/>
<text text-anchor="middle" x="1190" y="-99.8" font-family="Times,serif" font-size="14.00">MenuComponent</text>
</g>
<!-- MenuComponent&#45;&gt;AppModule -->
<g id="edge6" class="edge">
<title>MenuComponent&#45;&gt;AppModule</title>
<path fill="none" stroke="black" d="M1141.92,-122.11C1141.92,-122.11 1141.92,-140.99 1141.92,-140.99"/>
<polygon fill="black" stroke="black" points="1138.42,-140.99 1141.92,-150.99 1145.42,-140.99 1138.42,-140.99"/>
</g>
<!-- PostagemDeleteComponent -->
<g id="node7" class="node">
<title>PostagemDeleteComponent</title>
<polygon fill="#ffffb3" stroke="black" points="1115.3,-122 942.7,-122 942.7,-86 1115.3,-86 1115.3,-122"/>
<text text-anchor="middle" x="1029" y="-99.8" font-family="Times,serif" font-size="14.00">PostagemDeleteComponent</text>
</g>
<!-- PostagemDeleteComponent&#45;&gt;AppModule -->
<g id="edge7" class="edge">
<title>PostagemDeleteComponent&#45;&gt;AppModule</title>
<path fill="none" stroke="black" d="M1091.16,-122.11C1091.16,-122.11 1091.16,-140.99 1091.16,-140.99"/>
<polygon fill="black" stroke="black" points="1087.66,-140.99 1091.16,-150.99 1094.66,-140.99 1087.66,-140.99"/>
</g>
<!-- PostagemEditComponent -->
<g id="node8" class="node">
<title>PostagemEditComponent</title>
<polygon fill="#ffffb3" stroke="black" points="924.6,-122 765.4,-122 765.4,-86 924.6,-86 924.6,-122"/>
<text text-anchor="middle" x="845" y="-99.8" font-family="Times,serif" font-size="14.00">PostagemEditComponent</text>
</g>
<!-- PostagemEditComponent&#45;&gt;AppModule -->
<g id="edge8" class="edge">
<title>PostagemEditComponent&#45;&gt;AppModule</title>
<path fill="none" stroke="black" d="M845,-122.24C845,-137.57 845,-157 845,-157 845,-157 1057.17,-157 1057.17,-157"/>
<polygon fill="black" stroke="black" points="1057.17,-160.5 1067.17,-157 1057.17,-153.5 1057.17,-160.5"/>
</g>
<!-- SignupComponent -->
<g id="node9" class="node">
<title>SignupComponent</title>
<polygon fill="#ffffb3" stroke="black" points="747.51,-122 626.49,-122 626.49,-86 747.51,-86 747.51,-122"/>
<text text-anchor="middle" x="687" y="-99.8" font-family="Times,serif" font-size="14.00">SignupComponent</text>
</g>
<!-- SignupComponent&#45;&gt;AppModule -->
<g id="edge9" class="edge">
<title>SignupComponent&#45;&gt;AppModule</title>
<path fill="none" stroke="black" d="M687,-122.03C687,-139.06 687,-162 687,-162 687,-162 1056.99,-162 1056.99,-162"/>
<polygon fill="black" stroke="black" points="1056.99,-165.5 1066.99,-162 1056.99,-158.5 1056.99,-165.5"/>
</g>
<!-- TemaComponent -->
<g id="node10" class="node">
<title>TemaComponent</title>
<polygon fill="#ffffb3" stroke="black" points="608.7,-122 495.3,-122 495.3,-86 608.7,-86 608.7,-122"/>
<text text-anchor="middle" x="552" y="-99.8" font-family="Times,serif" font-size="14.00">TemaComponent</text>
</g>
<!-- TemaComponent&#45;&gt;AppModule -->
<g id="edge10" class="edge">
<title>TemaComponent&#45;&gt;AppModule</title>
<path fill="none" stroke="black" d="M552,-122.22C552,-140.83 552,-167 552,-167 552,-167 1057.13,-167 1057.13,-167"/>
<polygon fill="black" stroke="black" points="1057.13,-170.5 1067.13,-167 1057.13,-163.5 1057.13,-170.5"/>
</g>
<!-- TemaDeleteComponent -->
<g id="node11" class="node">
<title>TemaDeleteComponent</title>
<polygon fill="#ffffb3" stroke="black" points="477.74,-122 328.26,-122 328.26,-86 477.74,-86 477.74,-122"/>
<text text-anchor="middle" x="403" y="-99.8" font-family="Times,serif" font-size="14.00">TemaDeleteComponent</text>
</g>
<!-- TemaDeleteComponent&#45;&gt;AppModule -->
<g id="edge11" class="edge">
<title>TemaDeleteComponent&#45;&gt;AppModule</title>
<path fill="none" stroke="black" d="M403,-122.22C403,-142.37 403,-172 403,-172 403,-172 1057.21,-172 1057.21,-172"/>
<polygon fill="black" stroke="black" points="1057.21,-175.5 1067.21,-172 1057.21,-168.5 1057.21,-175.5"/>
</g>
<!-- TemaEditComponent -->
<g id="node12" class="node">
<title>TemaEditComponent</title>
<polygon fill="#ffffb3" stroke="black" points="310.04,-122 173.96,-122 173.96,-86 310.04,-86 310.04,-122"/>
<text text-anchor="middle" x="242" y="-99.8" font-family="Times,serif" font-size="14.00">TemaEditComponent</text>
</g>
<!-- TemaEditComponent&#45;&gt;AppModule -->
<g id="edge12" class="edge">
<title>TemaEditComponent&#45;&gt;AppModule</title>
<path fill="none" stroke="black" d="M242,-122.04C242,-143.66 242,-177 242,-177 242,-177 1057.18,-177 1057.18,-177"/>
<polygon fill="black" stroke="black" points="1057.18,-180.5 1067.18,-177 1057.18,-173.5 1057.18,-180.5"/>
</g>
<!-- UserEditComponent -->
<g id="node13" class="node">
<title>UserEditComponent</title>
<polygon fill="#ffffb3" stroke="black" points="155.59,-122 24.41,-122 24.41,-86 155.59,-86 155.59,-122"/>
<text text-anchor="middle" x="90" y="-99.8" font-family="Times,serif" font-size="14.00">UserEditComponent</text>
</g>
<!-- UserEditComponent&#45;&gt;AppModule -->
<g id="edge13" class="edge">
<title>UserEditComponent&#45;&gt;AppModule</title>
<path fill="none" stroke="black" d="M90,-122.09C90,-145.13 90,-182 90,-182 90,-182 1057.15,-182 1057.15,-182"/>
<polygon fill="black" stroke="black" points="1057.15,-185.5 1067.15,-182 1057.15,-178.5 1057.15,-185.5"/>
</g>
<!-- AppComponent  -->
<g id="node16" class="node">
<title>AppComponent </title>
<polygon fill="#80b1d3" stroke="black" points="1163.44,-252 1054.56,-252 1054.56,-216 1163.44,-216 1163.44,-252"/>
<text text-anchor="middle" x="1109" y="-229.8" font-family="Times,serif" font-size="14.00">AppComponent </text>
</g>
<!-- AppModule&#45;&gt;AppComponent  -->
<g id="edge15" class="edge">
<title>AppModule&#45;&gt;AppComponent </title>
<path fill="none" stroke="black" stroke-dasharray="1,5" d="M1109,-187.11C1109,-187.11 1109,-205.99 1109,-205.99"/>
<polygon fill="black" stroke="black" points="1105.5,-205.99 1109,-215.99 1112.5,-205.99 1105.5,-205.99"/>
</g>
<!-- AppRoutingModule -->
<g id="node15" class="node">
<title>AppRoutingModule</title>
<polygon fill="#8dd3c7" stroke="black" points="2051.27,-122 2048.27,-126 2027.27,-126 2024.27,-122 1922.73,-122 1922.73,-86 2051.27,-86 2051.27,-122"/>
<text text-anchor="middle" x="1987" y="-99.8" font-family="Times,serif" font-size="14.00">AppRoutingModule</text>
</g>
<!-- AppRoutingModule&#45;&gt;AppModule -->
<g id="edge14" class="edge">
<title>AppRoutingModule&#45;&gt;AppModule</title>
<path fill="none" stroke="black" d="M1987,-122.09C1987,-145.13 1987,-182 1987,-182 1987,-182 1160.76,-182 1160.76,-182"/>
<polygon fill="black" stroke="black" points="1160.76,-178.5 1150.76,-182 1160.76,-185.5 1160.76,-178.5"/>
</g>
</g>
</svg>
